<svg xmlns="http://www.w3.org/2000/svg" width="1920" height="1080" viewBox="0 0 1920 1080">
  <rect width="1920" height="1080" fill="#2A3F54"/>
  <g fill="#EDB458" transform="translate(710, 380)">
    <path d="M250,0 L500,400 L0,400 Z" />
    <rect x="150" y="400" width="200" height="300" />
    <rect x="200" y="500" width="100" height="100" fill="#ffffff" />
  </g>
  <g fill="#334D6E" transform="translate(200, 480)">
    <path d="M200,0 L400,300 L0,300 Z" />
    <rect x="120" y="300" width="160" height="250" />
  </g>
  <g fill="#506E91" transform="translate(1320, 580)">
    <path d="M150,0 L300,200 L0,200 Z" />
    <rect x="75" y="200" width="150" height="150" />
  </g>
  <g transform="translate(960, 180)">
    <circle cx="0" cy="0" r="80" fill="#F6D55C" />
    <g fill="none" stroke="#ffffff" stroke-width="3">
      <line x1="-40" y1="0" x2="40" y2="0" />
      <line x1="0" y1="-40" x2="0" y2="40" />
    </g>
  </g>
  <g fill="#F5F5F5" transform="translate(200, 200)">
    <rect x="0" y="0" width="220" height="8" />
    <rect x="0" y="20" width="180" height="8" />
    <rect x="0" y="40" width="200" height="8" />
  </g>
</svg> 